<mxfile host="app.diagrams.net" modified="2023-03-14T13:05:11.817Z" agent="5.0 (Macintosh; Intel Mac OS X 10_15_7) AppleWebKit/537.36 (KHTML, like Gecko) Chrome/110.0.0.0 Safari/537.36 Edg/110.0.1587.69" etag="e8oBR0hnWMwBOXgNSBGJ" version="21.0.4" type="github">
  <diagram id="C5RBs43oDa-KdzZeNtuy" name="Page-1">
    <mxGraphModel dx="2053" dy="2105" grid="1" gridSize="10" guides="1" tooltips="1" connect="1" arrows="1" fold="1" page="1" pageScale="1" pageWidth="827" pageHeight="1169" math="0" shadow="0">
      <root>
        <mxCell id="WIyWlLk6GJQsqaUBKTNV-0" />
        <mxCell id="WIyWlLk6GJQsqaUBKTNV-1" parent="WIyWlLk6GJQsqaUBKTNV-0" />
        <mxCell id="zkfFHV4jXpPFQw0GAbJ--0" value="User" style="swimlane;fontStyle=2;align=center;verticalAlign=top;childLayout=stackLayout;horizontal=1;startSize=26;horizontalStack=0;resizeParent=1;resizeLast=0;collapsible=1;marginBottom=0;rounded=0;shadow=0;strokeWidth=1;" parent="WIyWlLk6GJQsqaUBKTNV-1" vertex="1">
          <mxGeometry x="-160" y="120" width="172.31" height="166" as="geometry">
            <mxRectangle x="230" y="140" width="160" height="26" as="alternateBounds" />
          </mxGeometry>
        </mxCell>
        <mxCell id="zkfFHV4jXpPFQw0GAbJ--1" value="id: int" style="text;align=left;verticalAlign=top;spacingLeft=4;spacingRight=4;overflow=hidden;rotatable=0;points=[[0,0.5],[1,0.5]];portConstraint=eastwest;" parent="zkfFHV4jXpPFQw0GAbJ--0" vertex="1">
          <mxGeometry y="26" width="172.31" height="26" as="geometry" />
        </mxCell>
        <mxCell id="zkfFHV4jXpPFQw0GAbJ--2" value="name: string" style="text;align=left;verticalAlign=top;spacingLeft=4;spacingRight=4;overflow=hidden;rotatable=0;points=[[0,0.5],[1,0.5]];portConstraint=eastwest;rounded=0;shadow=0;html=0;" parent="zkfFHV4jXpPFQw0GAbJ--0" vertex="1">
          <mxGeometry y="52" width="172.31" height="28" as="geometry" />
        </mxCell>
        <mxCell id="zkfFHV4jXpPFQw0GAbJ--3" value="email: string" style="text;align=left;verticalAlign=top;spacingLeft=4;spacingRight=4;overflow=hidden;rotatable=0;points=[[0,0.5],[1,0.5]];portConstraint=eastwest;rounded=0;shadow=0;html=0;" parent="zkfFHV4jXpPFQw0GAbJ--0" vertex="1">
          <mxGeometry y="80" width="172.31" height="26" as="geometry" />
        </mxCell>
        <mxCell id="9AGuQ0FXEvpkbl0KZOvJ-0" value="phone: string" style="text;align=left;verticalAlign=top;spacingLeft=4;spacingRight=4;overflow=hidden;rotatable=0;points=[[0,0.5],[1,0.5]];portConstraint=eastwest;rounded=0;shadow=0;html=0;" parent="zkfFHV4jXpPFQw0GAbJ--0" vertex="1">
          <mxGeometry y="106" width="172.31" height="26" as="geometry" />
        </mxCell>
        <mxCell id="9AGuQ0FXEvpkbl0KZOvJ-44" value="races: Race[]" style="text;align=left;verticalAlign=top;spacingLeft=4;spacingRight=4;overflow=hidden;rotatable=0;points=[[0,0.5],[1,0.5]];portConstraint=eastwest;rounded=0;shadow=0;html=0;" parent="zkfFHV4jXpPFQw0GAbJ--0" vertex="1">
          <mxGeometry y="132" width="172.31" height="26" as="geometry" />
        </mxCell>
        <mxCell id="zkfFHV4jXpPFQw0GAbJ--4" value="" style="line;html=1;strokeWidth=1;align=left;verticalAlign=middle;spacingTop=-1;spacingLeft=3;spacingRight=3;rotatable=0;labelPosition=right;points=[];portConstraint=eastwest;" parent="zkfFHV4jXpPFQw0GAbJ--0" vertex="1">
          <mxGeometry y="158" width="172.31" height="8" as="geometry" />
        </mxCell>
        <mxCell id="9AGuQ0FXEvpkbl0KZOvJ-2" value="Mechanic" style="swimlane;fontStyle=2;align=center;verticalAlign=top;childLayout=stackLayout;horizontal=1;startSize=26;horizontalStack=0;resizeParent=1;resizeLast=0;collapsible=1;marginBottom=0;rounded=0;shadow=0;strokeWidth=1;" parent="WIyWlLk6GJQsqaUBKTNV-1" vertex="1">
          <mxGeometry x="-414" y="258" width="172.31" height="34" as="geometry">
            <mxRectangle x="230" y="140" width="160" height="26" as="alternateBounds" />
          </mxGeometry>
        </mxCell>
        <mxCell id="9AGuQ0FXEvpkbl0KZOvJ-7" value="" style="line;html=1;strokeWidth=1;align=left;verticalAlign=middle;spacingTop=-1;spacingLeft=3;spacingRight=3;rotatable=0;labelPosition=right;points=[];portConstraint=eastwest;" parent="9AGuQ0FXEvpkbl0KZOvJ-2" vertex="1">
          <mxGeometry y="26" width="172.31" height="8" as="geometry" />
        </mxCell>
        <mxCell id="9AGuQ0FXEvpkbl0KZOvJ-11" value="Driver" style="swimlane;fontStyle=2;align=center;verticalAlign=top;childLayout=stackLayout;horizontal=1;startSize=26;horizontalStack=0;resizeParent=1;resizeLast=0;collapsible=1;marginBottom=0;rounded=0;shadow=0;strokeWidth=1;" parent="WIyWlLk6GJQsqaUBKTNV-1" vertex="1">
          <mxGeometry x="150" y="393" width="172.31" height="268" as="geometry">
            <mxRectangle x="230" y="140" width="160" height="26" as="alternateBounds" />
          </mxGeometry>
        </mxCell>
        <mxCell id="9AGuQ0FXEvpkbl0KZOvJ-26" value="-team: Team" style="text;align=left;verticalAlign=top;spacingLeft=4;spacingRight=4;overflow=hidden;rotatable=0;points=[[0,0.5],[1,0.5]];portConstraint=eastwest;rounded=0;shadow=0;html=0;" parent="9AGuQ0FXEvpkbl0KZOvJ-11" vertex="1">
          <mxGeometry y="26" width="172.31" height="26" as="geometry" />
        </mxCell>
        <mxCell id="9AGuQ0FXEvpkbl0KZOvJ-38" value="-status: EStatus" style="text;align=left;verticalAlign=top;spacingLeft=4;spacingRight=4;overflow=hidden;rotatable=0;points=[[0,0.5],[1,0.5]];portConstraint=eastwest;rounded=0;shadow=0;html=0;" parent="9AGuQ0FXEvpkbl0KZOvJ-11" vertex="1">
          <mxGeometry y="52" width="172.31" height="26" as="geometry" />
        </mxCell>
        <mxCell id="9AGuQ0FXEvpkbl0KZOvJ-40" value="-nationality: String&#xa;&#xa;" style="text;align=left;verticalAlign=top;spacingLeft=4;spacingRight=4;overflow=hidden;rotatable=0;points=[[0,0.5],[1,0.5]];portConstraint=eastwest;rounded=0;shadow=0;html=0;" parent="9AGuQ0FXEvpkbl0KZOvJ-11" vertex="1">
          <mxGeometry y="78" width="172.31" height="26" as="geometry" />
        </mxCell>
        <mxCell id="9AGuQ0FXEvpkbl0KZOvJ-67" value="-pace: double" style="text;align=left;verticalAlign=top;spacingLeft=4;spacingRight=4;overflow=hidden;rotatable=0;points=[[0,0.5],[1,0.5]];portConstraint=eastwest;rounded=0;shadow=0;html=0;" parent="9AGuQ0FXEvpkbl0KZOvJ-11" vertex="1">
          <mxGeometry y="104" width="172.31" height="26" as="geometry" />
        </mxCell>
        <mxCell id="9AGuQ0FXEvpkbl0KZOvJ-68" value="-laps: Laps[]" style="text;align=left;verticalAlign=top;spacingLeft=4;spacingRight=4;overflow=hidden;rotatable=0;points=[[0,0.5],[1,0.5]];portConstraint=eastwest;rounded=0;shadow=0;html=0;" parent="9AGuQ0FXEvpkbl0KZOvJ-11" vertex="1">
          <mxGeometry y="130" width="172.31" height="26" as="geometry" />
        </mxCell>
        <mxCell id="9AGuQ0FXEvpkbl0KZOvJ-69" value="-totalTime: DateTime" style="text;align=left;verticalAlign=top;spacingLeft=4;spacingRight=4;overflow=hidden;rotatable=0;points=[[0,0.5],[1,0.5]];portConstraint=eastwest;rounded=0;shadow=0;html=0;" parent="9AGuQ0FXEvpkbl0KZOvJ-11" vertex="1">
          <mxGeometry y="156" width="172.31" height="26" as="geometry" />
        </mxCell>
        <mxCell id="9AGuQ0FXEvpkbl0KZOvJ-74" value="-total_kilometers: double" style="text;align=left;verticalAlign=top;spacingLeft=4;spacingRight=4;overflow=hidden;rotatable=0;points=[[0,0.5],[1,0.5]];portConstraint=eastwest;rounded=0;shadow=0;html=0;" parent="9AGuQ0FXEvpkbl0KZOvJ-11" vertex="1">
          <mxGeometry y="182" width="172.31" height="26" as="geometry" />
        </mxCell>
        <mxCell id="9AGuQ0FXEvpkbl0KZOvJ-18" value="Race" style="swimlane;fontStyle=2;align=center;verticalAlign=top;childLayout=stackLayout;horizontal=1;startSize=26;horizontalStack=0;resizeParent=1;resizeLast=0;collapsible=1;marginBottom=0;rounded=0;shadow=0;strokeWidth=1;" parent="WIyWlLk6GJQsqaUBKTNV-1" vertex="1">
          <mxGeometry x="400" y="391" width="172.31" height="270" as="geometry">
            <mxRectangle x="230" y="140" width="160" height="26" as="alternateBounds" />
          </mxGeometry>
        </mxCell>
        <mxCell id="9AGuQ0FXEvpkbl0KZOvJ-23" value="analyst: Analyst&#xa;&#xa;" style="text;align=left;verticalAlign=top;spacingLeft=4;spacingRight=4;overflow=hidden;rotatable=0;points=[[0,0.5],[1,0.5]];portConstraint=eastwest;rounded=0;shadow=0;html=0;" parent="9AGuQ0FXEvpkbl0KZOvJ-18" vertex="1">
          <mxGeometry y="26" width="172.31" height="26" as="geometry" />
        </mxCell>
        <mxCell id="9AGuQ0FXEvpkbl0KZOvJ-24" value="drivers: Driver[]&#xa;&#xa;" style="text;align=left;verticalAlign=top;spacingLeft=4;spacingRight=4;overflow=hidden;rotatable=0;points=[[0,0.5],[1,0.5]];portConstraint=eastwest;rounded=0;shadow=0;html=0;" parent="9AGuQ0FXEvpkbl0KZOvJ-18" vertex="1">
          <mxGeometry y="52" width="172.31" height="26" as="geometry" />
        </mxCell>
        <mxCell id="9AGuQ0FXEvpkbl0KZOvJ-25" value="team: Team[]&#xa;&#xa;" style="text;align=left;verticalAlign=top;spacingLeft=4;spacingRight=4;overflow=hidden;rotatable=0;points=[[0,0.5],[1,0.5]];portConstraint=eastwest;rounded=0;shadow=0;html=0;" parent="9AGuQ0FXEvpkbl0KZOvJ-18" vertex="1">
          <mxGeometry y="78" width="172.31" height="26" as="geometry" />
        </mxCell>
        <mxCell id="9AGuQ0FXEvpkbl0KZOvJ-43" value="mechanic: Mechanic&#xa;&#xa;" style="text;align=left;verticalAlign=top;spacingLeft=4;spacingRight=4;overflow=hidden;rotatable=0;points=[[0,0.5],[1,0.5]];portConstraint=eastwest;rounded=0;shadow=0;html=0;" parent="9AGuQ0FXEvpkbl0KZOvJ-18" vertex="1">
          <mxGeometry y="104" width="172.31" height="26" as="geometry" />
        </mxCell>
        <mxCell id="9AGuQ0FXEvpkbl0KZOvJ-80" value="laps: Laps[]&#xa;" style="text;align=left;verticalAlign=top;spacingLeft=4;spacingRight=4;overflow=hidden;rotatable=0;points=[[0,0.5],[1,0.5]];portConstraint=eastwest;rounded=0;shadow=0;html=0;" parent="9AGuQ0FXEvpkbl0KZOvJ-18" vertex="1">
          <mxGeometry y="130" width="172.31" height="26" as="geometry" />
        </mxCell>
        <mxCell id="9AGuQ0FXEvpkbl0KZOvJ-62" value="pace: double" style="text;align=left;verticalAlign=top;spacingLeft=4;spacingRight=4;overflow=hidden;rotatable=0;points=[[0,0.5],[1,0.5]];portConstraint=eastwest;rounded=0;shadow=0;html=0;" parent="9AGuQ0FXEvpkbl0KZOvJ-18" vertex="1">
          <mxGeometry y="156" width="172.31" height="26" as="geometry" />
        </mxCell>
        <mxCell id="9AGuQ0FXEvpkbl0KZOvJ-63" value="firstPlace: Driver" style="text;align=left;verticalAlign=top;spacingLeft=4;spacingRight=4;overflow=hidden;rotatable=0;points=[[0,0.5],[1,0.5]];portConstraint=eastwest;rounded=0;shadow=0;html=0;" parent="9AGuQ0FXEvpkbl0KZOvJ-18" vertex="1">
          <mxGeometry y="182" width="172.31" height="26" as="geometry" />
        </mxCell>
        <mxCell id="9AGuQ0FXEvpkbl0KZOvJ-72" value="circuit: Circuit" style="text;align=left;verticalAlign=top;spacingLeft=4;spacingRight=4;overflow=hidden;rotatable=0;points=[[0,0.5],[1,0.5]];portConstraint=eastwest;rounded=0;shadow=0;html=0;" parent="9AGuQ0FXEvpkbl0KZOvJ-18" vertex="1">
          <mxGeometry y="208" width="172.31" height="26" as="geometry" />
        </mxCell>
        <mxCell id="9AGuQ0FXEvpkbl0KZOvJ-73" value="current_kilometers: double" style="text;align=left;verticalAlign=top;spacingLeft=4;spacingRight=4;overflow=hidden;rotatable=0;points=[[0,0.5],[1,0.5]];portConstraint=eastwest;rounded=0;shadow=0;html=0;" parent="9AGuQ0FXEvpkbl0KZOvJ-18" vertex="1">
          <mxGeometry y="234" width="172.31" height="26" as="geometry" />
        </mxCell>
        <mxCell id="9AGuQ0FXEvpkbl0KZOvJ-27" value="Team" style="swimlane;fontStyle=2;align=center;verticalAlign=top;childLayout=stackLayout;horizontal=1;startSize=26;horizontalStack=0;resizeParent=1;resizeLast=0;collapsible=1;marginBottom=0;rounded=0;shadow=0;strokeWidth=1;" parent="WIyWlLk6GJQsqaUBKTNV-1" vertex="1">
          <mxGeometry x="160" y="120" width="172.31" height="112" as="geometry">
            <mxRectangle x="230" y="140" width="160" height="26" as="alternateBounds" />
          </mxGeometry>
        </mxCell>
        <mxCell id="9AGuQ0FXEvpkbl0KZOvJ-28" value="id: int&#xa;" style="text;align=left;verticalAlign=top;spacingLeft=4;spacingRight=4;overflow=hidden;rotatable=0;points=[[0,0.5],[1,0.5]];portConstraint=eastwest;rounded=0;shadow=0;html=0;" parent="9AGuQ0FXEvpkbl0KZOvJ-27" vertex="1">
          <mxGeometry y="26" width="172.31" height="26" as="geometry" />
        </mxCell>
        <mxCell id="9AGuQ0FXEvpkbl0KZOvJ-33" value="-category: ETeamCategory&#xa;" style="text;align=left;verticalAlign=top;spacingLeft=4;spacingRight=4;overflow=hidden;rotatable=0;points=[[0,0.5],[1,0.5]];portConstraint=eastwest;rounded=0;shadow=0;html=0;" parent="9AGuQ0FXEvpkbl0KZOvJ-27" vertex="1">
          <mxGeometry y="52" width="172.31" height="26" as="geometry" />
        </mxCell>
        <mxCell id="9AGuQ0FXEvpkbl0KZOvJ-34" value="-drivers: Driver[]&#xa;" style="text;align=left;verticalAlign=top;spacingLeft=4;spacingRight=4;overflow=hidden;rotatable=0;points=[[0,0.5],[1,0.5]];portConstraint=eastwest;rounded=0;shadow=0;html=0;" parent="9AGuQ0FXEvpkbl0KZOvJ-27" vertex="1">
          <mxGeometry y="78" width="172.31" height="26" as="geometry" />
        </mxCell>
        <mxCell id="9AGuQ0FXEvpkbl0KZOvJ-75" value="Car" style="swimlane;fontStyle=2;align=center;verticalAlign=top;childLayout=stackLayout;horizontal=1;startSize=26;horizontalStack=0;resizeParent=1;resizeLast=0;collapsible=1;marginBottom=0;rounded=0;shadow=0;strokeWidth=1;" parent="WIyWlLk6GJQsqaUBKTNV-1" vertex="1">
          <mxGeometry x="440" y="120" width="172.31" height="138" as="geometry">
            <mxRectangle x="230" y="140" width="160" height="26" as="alternateBounds" />
          </mxGeometry>
        </mxCell>
        <mxCell id="9AGuQ0FXEvpkbl0KZOvJ-76" value="-id: int&#xa;" style="text;align=left;verticalAlign=top;spacingLeft=4;spacingRight=4;overflow=hidden;rotatable=0;points=[[0,0.5],[1,0.5]];portConstraint=eastwest;rounded=0;shadow=0;html=0;" parent="9AGuQ0FXEvpkbl0KZOvJ-75" vertex="1">
          <mxGeometry y="26" width="172.31" height="26" as="geometry" />
        </mxCell>
        <mxCell id="9AGuQ0FXEvpkbl0KZOvJ-78" value="-drivers: drivers[]&#xa;" style="text;align=left;verticalAlign=top;spacingLeft=4;spacingRight=4;overflow=hidden;rotatable=0;points=[[0,0.5],[1,0.5]];portConstraint=eastwest;rounded=0;shadow=0;html=0;" parent="9AGuQ0FXEvpkbl0KZOvJ-75" vertex="1">
          <mxGeometry y="52" width="172.31" height="26" as="geometry" />
        </mxCell>
        <mxCell id="9AGuQ0FXEvpkbl0KZOvJ-81" value="-fuel: Fuel&#xa;" style="text;align=left;verticalAlign=top;spacingLeft=4;spacingRight=4;overflow=hidden;rotatable=0;points=[[0,0.5],[1,0.5]];portConstraint=eastwest;rounded=0;shadow=0;html=0;" parent="9AGuQ0FXEvpkbl0KZOvJ-75" vertex="1">
          <mxGeometry y="78" width="172.31" height="26" as="geometry" />
        </mxCell>
        <mxCell id="9AGuQ0FXEvpkbl0KZOvJ-51" value="Circuit" style="swimlane;fontStyle=2;align=center;verticalAlign=top;childLayout=stackLayout;horizontal=1;startSize=26;horizontalStack=0;resizeParent=1;resizeLast=0;collapsible=1;marginBottom=0;rounded=0;shadow=0;strokeWidth=1;" parent="WIyWlLk6GJQsqaUBKTNV-1" vertex="1">
          <mxGeometry x="710" y="350" width="172.31" height="167" as="geometry">
            <mxRectangle x="230" y="140" width="160" height="26" as="alternateBounds" />
          </mxGeometry>
        </mxCell>
        <mxCell id="9AGuQ0FXEvpkbl0KZOvJ-53" value="-name: String&#xa;" style="text;align=left;verticalAlign=top;spacingLeft=4;spacingRight=4;overflow=hidden;rotatable=0;points=[[0,0.5],[1,0.5]];portConstraint=eastwest;rounded=0;shadow=0;html=0;" parent="9AGuQ0FXEvpkbl0KZOvJ-51" vertex="1">
          <mxGeometry y="26" width="172.31" height="26" as="geometry" />
        </mxCell>
        <mxCell id="9AGuQ0FXEvpkbl0KZOvJ-56" value="-local: String&#xa;" style="text;align=left;verticalAlign=top;spacingLeft=4;spacingRight=4;overflow=hidden;rotatable=0;points=[[0,0.5],[1,0.5]];portConstraint=eastwest;rounded=0;shadow=0;html=0;" parent="9AGuQ0FXEvpkbl0KZOvJ-51" vertex="1">
          <mxGeometry y="52" width="172.31" height="26" as="geometry" />
        </mxCell>
        <mxCell id="9AGuQ0FXEvpkbl0KZOvJ-57" value="-trackSize: double&#xa;" style="text;align=left;verticalAlign=top;spacingLeft=4;spacingRight=4;overflow=hidden;rotatable=0;points=[[0,0.5],[1,0.5]];portConstraint=eastwest;rounded=0;shadow=0;html=0;" parent="9AGuQ0FXEvpkbl0KZOvJ-51" vertex="1">
          <mxGeometry y="78" width="172.31" height="26" as="geometry" />
        </mxCell>
        <mxCell id="9AGuQ0FXEvpkbl0KZOvJ-58" value="-safetyMargin: double&#xa;" style="text;align=left;verticalAlign=top;spacingLeft=4;spacingRight=4;overflow=hidden;rotatable=0;points=[[0,0.5],[1,0.5]];portConstraint=eastwest;rounded=0;shadow=0;html=0;" parent="9AGuQ0FXEvpkbl0KZOvJ-51" vertex="1">
          <mxGeometry y="104" width="172.31" height="26" as="geometry" />
        </mxCell>
        <mxCell id="9AGuQ0FXEvpkbl0KZOvJ-59" value="Analyst" style="swimlane;fontStyle=2;align=center;verticalAlign=top;childLayout=stackLayout;horizontal=1;startSize=26;horizontalStack=0;resizeParent=1;resizeLast=0;collapsible=1;marginBottom=0;rounded=0;shadow=0;strokeWidth=1;" parent="WIyWlLk6GJQsqaUBKTNV-1" vertex="1">
          <mxGeometry x="-410" y="120" width="172.31" height="34" as="geometry">
            <mxRectangle x="230" y="140" width="160" height="26" as="alternateBounds" />
          </mxGeometry>
        </mxCell>
        <mxCell id="9AGuQ0FXEvpkbl0KZOvJ-61" value="" style="line;html=1;strokeWidth=1;align=left;verticalAlign=middle;spacingTop=-1;spacingLeft=3;spacingRight=3;rotatable=0;labelPosition=right;points=[];portConstraint=eastwest;" parent="9AGuQ0FXEvpkbl0KZOvJ-59" vertex="1">
          <mxGeometry y="26" width="172.31" height="8" as="geometry" />
        </mxCell>
        <mxCell id="9AGuQ0FXEvpkbl0KZOvJ-84" value="Lap" style="swimlane;fontStyle=2;align=center;verticalAlign=top;childLayout=stackLayout;horizontal=1;startSize=26;horizontalStack=0;resizeParent=1;resizeLast=0;collapsible=1;marginBottom=0;rounded=0;shadow=0;strokeWidth=1;" parent="WIyWlLk6GJQsqaUBKTNV-1" vertex="1">
          <mxGeometry x="710" y="580" width="172.31" height="190" as="geometry">
            <mxRectangle x="230" y="140" width="160" height="26" as="alternateBounds" />
          </mxGeometry>
        </mxCell>
        <mxCell id="9AGuQ0FXEvpkbl0KZOvJ-86" value="-lapType: String&#xa;" style="text;align=left;verticalAlign=top;spacingLeft=4;spacingRight=4;overflow=hidden;rotatable=0;points=[[0,0.5],[1,0.5]];portConstraint=eastwest;rounded=0;shadow=0;html=0;" parent="9AGuQ0FXEvpkbl0KZOvJ-84" vertex="1">
          <mxGeometry y="26" width="172.31" height="26" as="geometry" />
        </mxCell>
        <mxCell id="9AGuQ0FXEvpkbl0KZOvJ-87" value="-lapTime: DateTime&#xa;" style="text;align=left;verticalAlign=top;spacingLeft=4;spacingRight=4;overflow=hidden;rotatable=0;points=[[0,0.5],[1,0.5]];portConstraint=eastwest;rounded=0;shadow=0;html=0;" parent="9AGuQ0FXEvpkbl0KZOvJ-84" vertex="1">
          <mxGeometry y="52" width="172.31" height="26" as="geometry" />
        </mxCell>
        <mxCell id="9AGuQ0FXEvpkbl0KZOvJ-88" value="-average_lap_time: double" style="text;align=left;verticalAlign=top;spacingLeft=4;spacingRight=4;overflow=hidden;rotatable=0;points=[[0,0.5],[1,0.5]];portConstraint=eastwest;rounded=0;shadow=0;html=0;" parent="9AGuQ0FXEvpkbl0KZOvJ-84" vertex="1">
          <mxGeometry y="78" width="172.31" height="26" as="geometry" />
        </mxCell>
        <mxCell id="9AGuQ0FXEvpkbl0KZOvJ-89" value="-laps: int" style="text;align=left;verticalAlign=top;spacingLeft=4;spacingRight=4;overflow=hidden;rotatable=0;points=[[0,0.5],[1,0.5]];portConstraint=eastwest;rounded=0;shadow=0;html=0;" parent="9AGuQ0FXEvpkbl0KZOvJ-84" vertex="1">
          <mxGeometry y="104" width="172.31" height="26" as="geometry" />
        </mxCell>
        <mxCell id="9AGuQ0FXEvpkbl0KZOvJ-98" value="-totalTime: DateTime" style="text;align=left;verticalAlign=top;spacingLeft=4;spacingRight=4;overflow=hidden;rotatable=0;points=[[0,0.5],[1,0.5]];portConstraint=eastwest;rounded=0;shadow=0;html=0;" parent="9AGuQ0FXEvpkbl0KZOvJ-84" vertex="1">
          <mxGeometry y="130" width="172.31" height="26" as="geometry" />
        </mxCell>
        <mxCell id="hRQF5KtD3f3HJl5D5kbe-2" value="EStatus" style="swimlane;fontStyle=2;align=center;verticalAlign=top;childLayout=stackLayout;horizontal=1;startSize=26;horizontalStack=0;resizeParent=1;resizeLast=0;collapsible=1;marginBottom=0;rounded=0;shadow=0;strokeWidth=1;" vertex="1" parent="WIyWlLk6GJQsqaUBKTNV-1">
          <mxGeometry x="150" y="750" width="172.31" height="90" as="geometry">
            <mxRectangle x="230" y="140" width="160" height="26" as="alternateBounds" />
          </mxGeometry>
        </mxCell>
        <mxCell id="hRQF5KtD3f3HJl5D5kbe-4" value="- ACTIVE" style="text;align=left;verticalAlign=top;spacingLeft=4;spacingRight=4;overflow=hidden;rotatable=0;points=[[0,0.5],[1,0.5]];portConstraint=eastwest;rounded=0;shadow=0;html=0;" vertex="1" parent="hRQF5KtD3f3HJl5D5kbe-2">
          <mxGeometry y="26" width="172.31" height="26" as="geometry" />
        </mxCell>
        <mxCell id="hRQF5KtD3f3HJl5D5kbe-7" value="- INACTIVE" style="text;align=left;verticalAlign=top;spacingLeft=4;spacingRight=4;overflow=hidden;rotatable=0;points=[[0,0.5],[1,0.5]];portConstraint=eastwest;rounded=0;shadow=0;html=0;" vertex="1" parent="hRQF5KtD3f3HJl5D5kbe-2">
          <mxGeometry y="52" width="172.31" height="26" as="geometry" />
        </mxCell>
        <mxCell id="hRQF5KtD3f3HJl5D5kbe-9" value="Fuel" style="swimlane;fontStyle=2;align=center;verticalAlign=top;childLayout=stackLayout;horizontal=1;startSize=26;horizontalStack=0;resizeParent=1;resizeLast=0;collapsible=1;marginBottom=0;rounded=0;shadow=0;strokeWidth=1;" vertex="1" parent="WIyWlLk6GJQsqaUBKTNV-1">
          <mxGeometry x="700" y="119" width="172.31" height="81" as="geometry">
            <mxRectangle x="230" y="140" width="160" height="26" as="alternateBounds" />
          </mxGeometry>
        </mxCell>
        <mxCell id="hRQF5KtD3f3HJl5D5kbe-11" value="-total: Double&#xa;" style="text;align=left;verticalAlign=top;spacingLeft=4;spacingRight=4;overflow=hidden;rotatable=0;points=[[0,0.5],[1,0.5]];portConstraint=eastwest;rounded=0;shadow=0;html=0;" vertex="1" parent="hRQF5KtD3f3HJl5D5kbe-9">
          <mxGeometry y="26" width="172.31" height="26" as="geometry" />
        </mxCell>
        <mxCell id="hRQF5KtD3f3HJl5D5kbe-12" value="-current: String&#xa;" style="text;align=left;verticalAlign=top;spacingLeft=4;spacingRight=4;overflow=hidden;rotatable=0;points=[[0,0.5],[1,0.5]];portConstraint=eastwest;rounded=0;shadow=0;html=0;" vertex="1" parent="hRQF5KtD3f3HJl5D5kbe-9">
          <mxGeometry y="52" width="172.31" height="26" as="geometry" />
        </mxCell>
        <mxCell id="hRQF5KtD3f3HJl5D5kbe-15" value="RaceTime" style="swimlane;fontStyle=2;align=center;verticalAlign=top;childLayout=stackLayout;horizontal=1;startSize=26;horizontalStack=0;resizeParent=1;resizeLast=0;collapsible=1;marginBottom=0;rounded=0;shadow=0;strokeWidth=1;" vertex="1" parent="WIyWlLk6GJQsqaUBKTNV-1">
          <mxGeometry x="400" y="750" width="172.31" height="190" as="geometry">
            <mxRectangle x="230" y="140" width="160" height="26" as="alternateBounds" />
          </mxGeometry>
        </mxCell>
        <mxCell id="hRQF5KtD3f3HJl5D5kbe-16" value="-started_at: DateTime&#xa;" style="text;align=left;verticalAlign=top;spacingLeft=4;spacingRight=4;overflow=hidden;rotatable=0;points=[[0,0.5],[1,0.5]];portConstraint=eastwest;rounded=0;shadow=0;html=0;" vertex="1" parent="hRQF5KtD3f3HJl5D5kbe-15">
          <mxGeometry y="26" width="172.31" height="26" as="geometry" />
        </mxCell>
        <mxCell id="hRQF5KtD3f3HJl5D5kbe-17" value="-end_at: DateTime&#xa;" style="text;align=left;verticalAlign=top;spacingLeft=4;spacingRight=4;overflow=hidden;rotatable=0;points=[[0,0.5],[1,0.5]];portConstraint=eastwest;rounded=0;shadow=0;html=0;" vertex="1" parent="hRQF5KtD3f3HJl5D5kbe-15">
          <mxGeometry y="52" width="172.31" height="26" as="geometry" />
        </mxCell>
        <mxCell id="hRQF5KtD3f3HJl5D5kbe-18" value="-time_now: DateTime" style="text;align=left;verticalAlign=top;spacingLeft=4;spacingRight=4;overflow=hidden;rotatable=0;points=[[0,0.5],[1,0.5]];portConstraint=eastwest;rounded=0;shadow=0;html=0;" vertex="1" parent="hRQF5KtD3f3HJl5D5kbe-15">
          <mxGeometry y="78" width="172.31" height="26" as="geometry" />
        </mxCell>
        <mxCell id="hRQF5KtD3f3HJl5D5kbe-19" value="-time_left: DateTime" style="text;align=left;verticalAlign=top;spacingLeft=4;spacingRight=4;overflow=hidden;rotatable=0;points=[[0,0.5],[1,0.5]];portConstraint=eastwest;rounded=0;shadow=0;html=0;" vertex="1" parent="hRQF5KtD3f3HJl5D5kbe-15">
          <mxGeometry y="104" width="172.31" height="26" as="geometry" />
        </mxCell>
        <mxCell id="hRQF5KtD3f3HJl5D5kbe-20" value="-race_time: DateTime" style="text;align=left;verticalAlign=top;spacingLeft=4;spacingRight=4;overflow=hidden;rotatable=0;points=[[0,0.5],[1,0.5]];portConstraint=eastwest;rounded=0;shadow=0;html=0;" vertex="1" parent="hRQF5KtD3f3HJl5D5kbe-15">
          <mxGeometry y="130" width="172.31" height="26" as="geometry" />
        </mxCell>
        <mxCell id="hRQF5KtD3f3HJl5D5kbe-41" value="ETeamCategory" style="swimlane;fontStyle=2;align=center;verticalAlign=top;childLayout=stackLayout;horizontal=1;startSize=26;horizontalStack=0;resizeParent=1;resizeLast=0;collapsible=1;marginBottom=0;rounded=0;shadow=0;strokeWidth=1;" vertex="1" parent="WIyWlLk6GJQsqaUBKTNV-1">
          <mxGeometry x="160" y="-20" width="172.31" height="30" as="geometry">
            <mxRectangle x="230" y="140" width="160" height="26" as="alternateBounds" />
          </mxGeometry>
        </mxCell>
      </root>
    </mxGraphModel>
  </diagram>
</mxfile>
